<?xml version="1.0" encoding="utf-8"?>
<!-- Generator: Adobe Illustrator 19.0.0, SVG Export Plug-In . SVG Version: 6.00 Build 0)  -->
<svg version="1.1" id="图层_1" xmlns="http://www.w3.org/2000/svg" xmlns:xlink="http://www.w3.org/1999/xlink" x="0px" y="0px"
	 viewBox="0 0 200 200" style="enable-background:new 0 0 200 200;" xml:space="preserve">
<style type="text/css">
	.st0{fill:#F7F8F8;}
</style>
<g>
	<path class="st0" d="M11.6,200c-3.4,0-6.2-2.8-6.2-6.2c0-19.3,6.2-37.6,17.8-53c5.6-7.4,12.3-13.8,19.9-19.2
		c6.8-4.7,14.1-8.5,21.8-11.1c-8.5-4.8-15.7-11.5-21-19.8c-6.1-9.5-9.3-20.4-9.3-31.7c0-32.5,26.5-59,59-59c32.5,0,59,26.5,59,59
		c0,11.3-3.2,22.2-9.3,31.7c-5.3,8.2-12.5,15-21,19.8c6.9,2.4,13.5,5.6,19.6,9.7l1.7,1.2c2.8,2,3.5,5.8,1.5,8.6
		c-1.2,1.6-3.1,2.6-5.1,2.6c-1.3,0-2.5-0.4-3.5-1.1l-1.4-1c-12.4-8.1-26.7-12.4-41.6-12.4c-41.8,0-75.8,34-75.8,75.8
		C17.8,197.2,15,200,11.6,200L11.6,200z M93.7,12.4C67.9,12.4,47,33.3,47,59c0,25.7,20.9,46.7,46.7,46.7c25.7,0,46.7-20.9,46.7-46.7
		C140.3,33.3,119.4,12.4,93.7,12.4L93.7,12.4z M93.7,12.4"/>
	<path class="st0" d="M192,161.1h-23.2v-22.6c0-1.1-1-2.1-2.2-2.1h-8.3c-1.2,0-2.2,0.9-2.2,2.1v22.6H133c-1.2,0-2.2,0.9-2.2,2.1v8.1
		c0,1.2,1,2.1,2.2,2.1h23.2V196c0,1.2,1,2.1,2.2,2.1h8.3c1.2,0,2.2-0.9,2.2-2.1v-22.6H192c1.2,0,2.2-0.9,2.2-2.1v-8.1
		C194.2,162.1,193.2,161.1,192,161.1L192,161.1z M192,161.1"/>
</g>
</svg>
