<?xml version="1.0" encoding="utf-8"?>
<!-- Generator: Adobe Illustrator 19.0.0, SVG Export Plug-In . SVG Version: 6.00 Build 0)  -->
<svg version="1.1" id="图层_1" xmlns="http://www.w3.org/2000/svg" xmlns:xlink="http://www.w3.org/1999/xlink" x="0px" y="0px"
	 viewBox="0 0 127.5 68.5" style="enable-background:new 0 0 127.5 68.5;" xml:space="preserve">
<style type="text/css">
	.st0{fill:url(#XMLID_29_);}
	.st1{fill:url(#XMLID_30_);}
	.st2{fill:url(#XMLID_31_);}
	.st3{fill:url(#XMLID_32_);}
</style>
<g id="XMLID_21_">
	<linearGradient id="XMLID_29_" gradientUnits="userSpaceOnUse" x1="96.8666" y1="14.0655" x2="96.8666" y2="58.217">
		<stop  offset="0" style="stop-color:#FFFFFF"/>
		<stop  offset="0.3806" style="stop-color:#D7D7D7"/>
		<stop  offset="1" style="stop-color:#999999"/>
	</linearGradient>
	<path id="XMLID_412_" class="st0" d="M106.9,27.2v-1.1c0-5.5-4.5-10-10-10c-4,0-11.8,2.5-14.4,22.3h4.3v1.1c0,5.5,4.5,10,10.1,10
		c4,0,11.8-2.5,14.4-22.3H106.9z M99.5,39.6c0,1.5-1.2,2.6-2.6,2.6c-1.4,0-2.6-1.2-2.6-2.6V26.9h-0.1c-1,0-1.8-0.8-1.8-1.8
		c0-1,0.8-1.8,1.8-1.8h2.8c0.2,0,0.4,0,0.6,0.1c1.1,0.3,1.9,1.3,1.9,2.5V39.6z"/>
	<linearGradient id="XMLID_30_" gradientUnits="userSpaceOnUse" x1="66.756" y1="14.0655" x2="66.756" y2="58.217">
		<stop  offset="0" style="stop-color:#FFFFFF"/>
		<stop  offset="0.3806" style="stop-color:#D7D7D7"/>
		<stop  offset="1" style="stop-color:#999999"/>
	</linearGradient>
	<path id="XMLID_411_" class="st1" d="M66.8,54.4c-2.1,0-4.4-0.2-6-1.8c-2.4-2.4-2.4-7.2-2.3-17.7c0-1.7,0-3.5,0-5.5h2.3
		c0,2,0,3.9,0,5.5c0,9.2-0.1,14.3,1.6,16.1c0.8,0.8,2,1.1,4.3,1.1c2.3,0,3.5-0.3,4.3-1.1c1.7-1.7,1.7-6.8,1.7-16.1
		c0-1.6,0-3.5,0-5.5H75c0,2,0,3.8,0,5.5c0,10.5,0.1,15.3-2.4,17.8C71.2,54.2,68.8,54.4,66.8,54.4"/>
	<linearGradient id="XMLID_31_" gradientUnits="userSpaceOnUse" x1="47.7641" y1="14.0655" x2="47.7641" y2="58.217">
		<stop  offset="0" style="stop-color:#FFFFFF"/>
		<stop  offset="0.3806" style="stop-color:#D7D7D7"/>
		<stop  offset="1" style="stop-color:#999999"/>
	</linearGradient>
	<path id="XMLID_410_" class="st2" d="M49,54.4c-4.2,0-8.5-3-8.7-3.1l1.3-1.9c0,0,5.2,3.6,8.8,2.5c1.3-0.4,2.3-1.4,2.9-3
		c0.9-2.2-1.9-4-5.9-6.2c-0.5-0.3-1-0.6-1.5-0.8c-4-2.3-6-4.3-6.3-6.5c-0.2-1.4,0.2-2.7,1.4-4c2.3-2.7,5.5-3.3,9.1-2
		c2.6,1,4.5,2.6,4.6,2.7l-1.5,1.8c-0.3-0.2-6.4-5.5-10.4-0.9c-0.7,0.7-0.9,1.4-0.8,2.1c0.2,1.4,2,3,5.2,4.9c0.5,0.3,1,0.5,1.5,0.8
		c3.8,2.1,8.6,4.8,6.9,9.1c-0.9,2.3-2.4,3.8-4.4,4.4C50.5,54.3,49.8,54.4,49,54.4"/>
	<linearGradient id="XMLID_32_" gradientUnits="userSpaceOnUse" x1="28.4209" y1="14.0655" x2="28.4209" y2="58.217">
		<stop  offset="0" style="stop-color:#FFFFFF"/>
		<stop  offset="0.3806" style="stop-color:#D7D7D7"/>
		<stop  offset="1" style="stop-color:#999999"/>
	</linearGradient>
	<path id="XMLID_409_" class="st3" d="M24.2,40.2c1.2-4.4,1.9-6.8,2.6-7.9c0.4-0.7,0.5-0.8,1.7-0.8c1.1,0,1.3,0.1,1.7,0.8
		c0.6,1.1,1.3,3.5,2.6,7.9c0.9,3.3,2.2,7.8,4.1,13.8h2.5c-2-6.3-3.3-11-4.3-14.4c-1.3-4.7-2-7-2.8-8.4c-1-1.9-2.3-2-3.8-2
		c-1.4,0-2.7,0.2-3.8,2c-0.8,1.4-1.4,3.7-2.8,8.4c-1,3.4-2.3,8.1-4.3,14.4h2.5C22,47.9,23.3,43.5,24.2,40.2"/>
</g>
</svg>
