<?xml version="1.0" encoding="utf-8"?>
<!-- Generator: Adobe Illustrator 19.0.0, SVG Export Plug-In . SVG Version: 6.00 Build 0)  -->
<svg version="1.1" id="图层_1" xmlns="http://www.w3.org/2000/svg" xmlns:xlink="http://www.w3.org/1999/xlink" x="0px" y="0px"
	 viewBox="0 0 85 85" style="enable-background:new 0 0 85 85;" xml:space="preserve">
<style type="text/css">
	.st0{fill:#FBFBFB;}
</style>
<g>
	<g>
		<path class="st0" d="M8,85c-4.4,0-8-3.7-8-8.3V8.3C0,3.7,3.6,0,8,0h44c0.9,0,1.7,0.8,1.7,1.8c0,1-0.8,1.8-1.7,1.8H8.5
			c-2.8,0-5,2.3-5,5.2v67.5c0,2.9,2.3,5.2,5,5.2h67.6c2.8,0,5-2.3,5-5.2V34.9c0-1,0.8-1.8,1.7-1.8c0.9,0,1.7,0.8,1.7,1.8v41.8
			c0,4.6-3.6,8.3-8,8.3H8z M24.1,66.5c-0.4,0-0.8-0.2-1.1-0.5c-0.4-0.4-0.5-1-0.4-1.5l4.4-16.7L69.8,3.6c1-1.1,2.5-1.7,4-1.7
			c1.8,0,3.6,0.8,5,2.2l4,4.2c1.4,1.4,2.1,3.3,2.1,5.2c0,1.6-0.6,3.1-1.6,4.2L40.7,62l-16.1,4.5C24.4,66.5,24.3,66.5,24.1,66.5
			L24.1,66.5z M26.3,62.8l12.4-3.5l-9-9.3L26.3,62.8z M31.9,47.9l8.7,9L73,23.4V23l-0.2-0.2l-8.3-8.7L31.9,47.9z M72.4,6.1L72.4,6.1
			l-5.2,5.3l8.7,9.1l5.1-5.3c1.2-1.2,1.1-3.3-0.2-4.6l-4.1-4.2c-0.7-0.7-1.5-1.1-2.4-1.1C73.6,5.3,73,5.5,72.4,6.1L72.4,6.1
			L72.4,6.1z M72.4,6.1"/>
	</g>
</g>
</svg>
