<?xml version="1.0" encoding="utf-8"?>
<!-- Generator: Adobe Illustrator 19.0.0, SVG Export Plug-In . SVG Version: 6.00 Build 0)  -->
<svg version="1.1" id="图层_1" xmlns="http://www.w3.org/2000/svg" xmlns:xlink="http://www.w3.org/1999/xlink" x="0px" y="0px"
	 viewBox="0 0 200 200" style="enable-background:new 0 0 200 200;" xml:space="preserve">
<style type="text/css">
	.st0{fill:#F7F8F8;}
</style>
<g>
	<g>
		<path class="st0" d="M2.2,100.5c0.3,3.9,3,7.1,6.7,8.1l70.9,20.5l2.6,46.7c0.2,1.9,1.5,3.5,3.3,4.1c0.5,0.2,1,0.3,1.6,0.3
			c1.4,0,2.7-0.5,3.6-1.5l25.1-26.5l35.5,23.5c1.6,1.1,3.5,1.6,5.4,1.6c4.4,0,8.3-3,9.3-7.2l29.5-143.8c0.3-1.7-0.3-3.4-1.7-4.5
			c-1.4-1.1-3.3-1.4-4.9-0.7L7.9,91.6C4.4,93.1,2.1,96.6,2.2,100.5L2.2,100.5z M91.5,164.3l-1.6-29.5l18.2,12L91.5,164.3z
			 M156.8,167.9l-64.7-42.8l90.7-83.9L156.8,167.9z M172.9,37.4l-89.7,83L12.4,99.9L172.9,37.4z M172.9,37.4"/>
	</g>
</g>
</svg>
