<?xml version="1.0" encoding="utf-8"?>
<!-- Generator: Adobe Illustrator 19.0.0, SVG Export Plug-In . SVG Version: 6.00 Build 0)  -->
<svg version="1.1" id="图层_1" xmlns="http://www.w3.org/2000/svg" xmlns:xlink="http://www.w3.org/1999/xlink" x="0px" y="0px"
	 viewBox="0 0 66 66" style="enable-background:new 0 0 66 66;" xml:space="preserve">
<style type="text/css">
	.st0{fill:#898989;}
</style>
<g>
	<g>
		<path class="st0" d="M14.6,66H1.3C0.6,66,0,65.4,0,64.6v-37c0-0.8,0.6-1.4,1.3-1.4h13.4c0.7,0,1.3,0.6,1.3,1.4v37
			C15.9,65.4,15.4,66,14.6,66L14.6,66z M13.4,61.7V30.3c0-0.8-0.6-1.4-1.3-1.4H3.9c-0.7,0-1.3,0.6-1.3,1.4v31.4
			c0,0.8,0.6,1.4,1.3,1.4h8.2C12.8,63.1,13.4,62.5,13.4,61.7L13.4,61.7z M64.7,65.9H51.2c-0.7,0-1.3-0.6-1.3-1.4V1.4
			c0-0.8,0.6-1.4,1.3-1.4h13.5C65.4,0,66,0.6,66,1.4v63.2C66,65.3,65.4,65.9,64.7,65.9L64.7,65.9z M63.6,61.7V4.2
			c0-0.8-0.6-1.4-1.3-1.4H54c-0.7,0-1.3,0.6-1.3,1.4v57.5c0,0.8,0.6,1.4,1.3,1.4h8.3C63,63.1,63.6,62.5,63.6,61.7L63.6,61.7z
			 M39.6,66H26.3c-0.7,0-1.3-0.6-1.3-1.4V17.2c0-0.8,0.6-1.4,1.3-1.4h13.4c0.7,0,1.3,0.6,1.3,1.4v47.4C40.9,65.4,40.4,66,39.6,66
			L39.6,66z M38.6,61.6V20c0-0.8-0.6-1.4-1.3-1.4h-8.2c-0.7,0-1.3,0.6-1.3,1.4v41.6c0,0.8,0.6,1.4,1.3,1.4h8.2
			C38,63,38.6,62.4,38.6,61.6L38.6,61.6z M38.6,61.6"/>
	</g>
</g>
</svg>
