<?xml version="1.0" encoding="utf-8"?>
<!-- Generator: Adobe Illustrator 19.0.0, SVG Export Plug-In . SVG Version: 6.00 Build 0)  -->
<svg version="1.1" id="图层_1" xmlns="http://www.w3.org/2000/svg" xmlns:xlink="http://www.w3.org/1999/xlink" x="0px" y="0px"
	 viewBox="-113 113.8 85 85" style="enable-background:new -113 113.8 85 85;" xml:space="preserve">
<style type="text/css">
	.st0{fill:#E95513;}
</style>
<g>
	<path class="st0" d="M-86.7,132.4c1.7,0,3.1-1.4,3.1-3.1v-12.4c0-1.7-1.4-3.1-3.1-3.1c-1.7,0-3.1,1.4-3.1,3.1v12.4
		C-89.8,131-88.4,132.4-86.7,132.4L-86.7,132.4z M-63.5,121.5h-13.9v6.2h13.9V121.5z M-77.5,173.4c1.2,1.2,3.2,1.2,4.4,0l22.9-22.9
		c1.2-1.2,1.2-3.2,0-4.4c-1.2-1.2-3.2-1.2-4.4,0l-20.8,20.8l-10.9-11c-1.2-1.2-3.2-1.2-4.4,0c-1.2,1.2-1.2,3.2,0,4.4L-77.5,173.4z
		 M-40.3,121.5H-45v6.2h4.6c3.4,0,6.2,2.8,6.2,6.2v52.6c0,3.4-2.8,6.2-6.2,6.2h-60.2c-3.4,0-6.2-2.8-6.2-6.2v-52.6
		c0-3.4,2.8-6.2,6.2-6.2h4.6v-6.2h-4.6c-6.9,0-12.4,5.6-12.4,12.4v52.6c0,6.8,5.5,12.3,12.4,12.3h60.3c6.8,0,12.3-5.5,12.3-12.3
		v-52.6C-28,127.1-33.5,121.5-40.3,121.5L-40.3,121.5z M-54.2,132.4c1.7,0,3.1-1.4,3.1-3.1v-12.4c0-1.7-1.4-3.1-3.1-3.1
		c-1.7,0-3.1,1.4-3.1,3.1v12.4C-57.3,131-56,132.4-54.2,132.4L-54.2,132.4z"/>
</g>
</svg>
