<?xml version="1.0" encoding="utf-8"?>
<!-- Generator: Adobe Illustrator 19.0.0, SVG Export Plug-In . SVG Version: 6.00 Build 0)  -->
<svg version="1.1" id="图层_1" xmlns="http://www.w3.org/2000/svg" xmlns:xlink="http://www.w3.org/1999/xlink" x="0px" y="0px"
	 viewBox="-273 161 235 180" style="enable-background:new -273 161 235 180;" xml:space="preserve">
<style type="text/css">
	.st0{fill:#699CC5;}
</style>
<g>
	<path class="st0" d="M-196.7,313.7c-2.7-0.2-7.7-1.7-10.5-9.3c-3.6-9.4-2.4-22.5,3.4-36.8c2.4-5.8,6-11.8,10.8-17.7
		c-0.7-2.2-1.1-4.3-1.1-6.5c0-4.8,8.1-8.3,9.6-18.7c4.5-31.7,22-47.3,26.5-49.7c-10.2-10.2-18.2-13.6-33.7-13.6
		c-29.3,0-53.3,22.3-56.3,51c-5.8,4.4-9.2,9.6-9.2,15.1c0,2.7,0.8,5.2,2.3,7.7c-3.9,4.4-9.3,11.1-12.5,19.1
		c-5.2,12.9-6.2,24.3-3.3,31.8c2.5,6.7,7,6.1,10.7-0.1c0.9-1.6,2.4-3.8,3.9-6.2c2.7,8.1,7.2,15.5,13.2,21.8
		c-3.7,1.1-6.8,2.3-8.6,3.8c-6.8,5.6-7.1,12-1.3,17c7.4,6.4,37.6,9.6,55.1,0.1c2,0.2,4,0.3,6,0.3c1.2-2.2,3.1-4.6,5.9-6.9l0,0
		c0.5-0.4,1.1-0.8,1.8-1.2c-1.1-1.5-2.1-3.1-3.1-4.7C-189.5,312.2-192.7,314-196.7,313.7L-196.7,313.7z"/>
	<path class="st0" d="M-43.6,265.3L-43.6,265.3c-3.1-8-8.3-14.8-12.1-19.2c1.4-2.5,2.2-5,2.2-7.7c0-5.6-3.3-10.8-8.9-15.2
		c-2.9-28.8-26.2-51.3-54.5-51.3c-28.4,0-51.7,22.5-54.5,51.3c-5.6,4.5-8.9,9.7-8.9,15.2c0,2.7,0.8,5.2,2.2,7.7
		c-3.8,4.4-9,11.2-12.1,19.2c-5,13-6,24.5-3.2,32c2.5,6.8,6.8,6.2,10.3-0.1c0.9-1.6,2.3-3.8,3.8-6.3c2.6,8.1,7,15.6,12.8,21.9
		c-3.5,1.1-6.6,2.4-8.4,3.8c-6.6,5.6-6.9,12.1-1.3,17.1c7.2,6.4,36.4,9.6,53.4,0.1c1.9,0.2,3.9,0.3,5.9,0.3c2.1,0,4.2-0.1,6.3-0.3
		c17,9.5,46.2,6.3,53.4-0.1c5.6-5,5.3-11.5-1.3-17.1c-1.8-1.5-5-2.8-8.7-3.9c5.7-6.3,10.1-13.7,12.7-21.8c1.5,2.4,2.9,4.7,3.8,6.3
		c3.6,6.3,7.9,6.9,10.3,0.1C-37.6,289.8-38.6,278.3-43.6,265.3L-43.6,265.3z"/>
</g>
</svg>
