<?xml version="1.0" encoding="utf-8"?>
<!-- Generator: Adobe Illustrator 19.0.0, SVG Export Plug-In . SVG Version: 6.00 Build 0)  -->
<svg version="1.1" id="图层_1" xmlns="http://www.w3.org/2000/svg" xmlns:xlink="http://www.w3.org/1999/xlink" x="0px" y="0px"
	 viewBox="0 0 66 66" style="enable-background:new 0 0 66 66;" xml:space="preserve">
<style type="text/css">
	.st0{fill-rule:evenodd;clip-rule:evenodd;fill:#898989;}
</style>
<g>
	<path class="st0" d="M43.1,36.8C49,33.3,53,27,53,19.8C53,8.9,44,0,33,0S13,8.9,13,19.8c0,10.8,8.8,19.6,19.7,19.8
		c0.1,0,0.2,0.1,0.3,0.1c13.4,0,25.1,9.3,28.1,22H4.9c1.6-6.8,5.8-12.8,11.6-16.9c1-0.7,1.2-2.1,0.5-3.1c-0.7-1-2.1-1.2-3.1-0.5
		C6.4,46.4,1.3,54.5,0,63.5c-0.1,0.6,0.1,1.3,0.5,1.7C1,65.7,1.6,66,2.2,66h61.6c0.6,0,1.3-0.3,1.7-0.8c0.4-0.5,0.6-1.1,0.5-1.8
		C64.1,50.8,54.9,40.6,43.1,36.8L43.1,36.8z M17.4,19.8c0-8.5,7-15.4,15.6-15.4s15.6,6.9,15.6,15.4c0,8.5-7,15.4-15.6,15.4
		S17.4,28.3,17.4,19.8L17.4,19.8z"/>
</g>
</svg>
