<?xml version="1.0" encoding="utf-8"?>
<!-- Generator: Adobe Illustrator 19.0.0, SVG Export Plug-In . SVG Version: 6.00 Build 0)  -->
<svg version="1.1" id="图层_1" xmlns="http://www.w3.org/2000/svg" xmlns:xlink="http://www.w3.org/1999/xlink" x="0px" y="0px"
	 viewBox="117.1 75 404.6 350.4" style="enable-background:new 117.1 75 404.6 350.4;" xml:space="preserve">
<style type="text/css">
	.st0{fill:#F6A900;}
</style>
<path class="st0" d="M412.1,282.3c45.3-20.3,70.5-71.3,60.3-121.7s-53-86.3-102.3-85.6c-49.2,0.7-91.1,37.7-100.1,88.3
	c-8.9,50.7,17.5,100.9,63.3,120c-60.7,18.7-103.2,75.8-105.7,142.1h294.1C519.4,357.6,474.8,299.6,412.1,282.3L412.1,282.3z"/>
<path class="st0" d="M283.1,279.2c-17.1-15.3-37.2-39.3-42.9-84.1c-1.3-14-1.2-28.1,0.4-42.1c-0.4,0,0.5,0,0.1,0
	c-53.3-2.5-87.3,37.6-87.3,84c0,34.6,19.8,64.3,48.1,77.1c-48.3,13.4-82.5,58.5-84.4,111.3h71.5l0,0
	C196.7,352.3,238,295.4,283.1,279.2L283.1,279.2z"/>
<path class="st0" d="M283.1,279.2"/>
</svg>
