<?xml version="1.0" encoding="utf-8"?>
<!-- Generator: Adobe Illustrator 19.0.0, SVG Export Plug-In . SVG Version: 6.00 Build 0)  -->
<svg version="1.1" id="图层_1" xmlns="http://www.w3.org/2000/svg" xmlns:xlink="http://www.w3.org/1999/xlink" x="0px" y="0px"
	 viewBox="0 0 200 200" style="enable-background:new 0 0 200 200;" xml:space="preserve">
<style type="text/css">
	.st0{fill:#B8B8B8;}
</style>
<g>
	<g>
		<path class="st0" d="M133.7,152.6c2.3,0,3.8,1.5,3.8,3.8c0,2.3-1.5,3.8-3.8,3.8H95.8c-2.3,0-3.8-1.5-3.8-3.8
			c0-2.3,1.5-3.8,3.8-3.8H133.7z M149.6,70.8l-8.3,8.3l-21.2-21.2l8.3-8.3c1.5-1.5,3.8-1.5,5.3,0l15.9,15.9
			C151.1,67,151.1,69.3,149.6,70.8L149.6,70.8z M51.9,126.1l63.6-63.6l21.2,21.2l-63.6,63.6L51.9,126.1z M46.6,152.6v-21.2
			l21.2,21.2H46.6z M136.7,41.3c-3-3-7.6-3-10.6,0l-85.6,85.6c-1.5,1.5-1.5,3-1.5,3v26.5c0,2.3,1.5,3.8,3.8,3.8h26.5
			c0,0,1.5,0,3-1.5l85.6-85.6c3-3,3-7.6,0-10.6L136.7,41.3z M136.7,41.3"/>
	</g>
</g>
</svg>
