<?xml version="1.0" encoding="utf-8"?>
<!-- Generator: Adobe Illustrator 19.0.0, SVG Export Plug-In . SVG Version: 6.00 Build 0)  -->
<svg version="1.1" id="图层_1" xmlns="http://www.w3.org/2000/svg" xmlns:xlink="http://www.w3.org/1999/xlink" x="0px" y="0px"
	 viewBox="0 0 200 200" style="enable-background:new 0 0 200 200;" xml:space="preserve">
<style type="text/css">
	.st0{fill:#F7F8F8;}
</style>
<g>
	<g>
		<path class="st0" d="M67.2,77c-4.5,0-8.1,3.8-8.1,8.4c0,4.6,3.6,8.4,8.1,8.4c4.5,0,8.1-3.8,8.1-8.4C75.3,80.7,71.6,77,67.2,77
			 M99.5,77c-4.5,0-8.1,3.8-8.1,8.4c0,4.6,3.6,8.4,8.1,8.4c4.5,0,8.1-3.8,8.1-8.4C107.6,80.7,104,77,99.5,77 M131.9,77
			c-4.5,0-8.1,3.8-8.1,8.4c0,4.6,3.6,8.4,8.1,8.4c4.5,0,8.1-3.8,8.1-8.4C140,80.8,136.4,77,131.9,77 M148.1,35H51
			c-8.9,0-16.2,7.5-16.2,16.8v63c0,9.3,7.4,17.8,16.6,17.8H76c7.3,7.7,14.7,15.4,22.1,23c0.4,0.4,0.9,0.6,1.4,0.6
			c0.5,0,1.1-0.2,1.4-0.6c0.4-0.4,13-14.8,21.5-23h25.3c9.1,0,16.6-8.6,16.6-17.8v-63C164.3,42.5,157,35,148.1,35 M156.2,114.8
			c0,4.6-3.9,9.5-8.5,9.5h-24.8c-3,0-5.7,3.1-5.7,3.1l-17.4,18.1l-17.4-18.1c0,0-3.3-3.1-6.2-3.1H51.3c-4.6,0-8.5-4.9-8.5-9.5v-63
			c0-4.6,3.6-8.4,8.1-8.4h97.1c4.5,0,8.1,3.8,8.1,8.4V114.8"/>
	</g>
</g>
</svg>
